# xmcd
#
# Track frame offsets: 
#        150
#        18232
#        32657
#        51680
#        68350
#        87062
#        107755
#        127527
#        152872
#        174642
#        196797
#        216147
#        233232
#
# Disc length: 3352 seconds
#
# Revision: 6
# Processed by: cddbd v1.5.2PL0 Copyright (c) Steve Scherf et al.
# Submitted via: ExactAudioCopy v0.95a5
#
DISCID=a00d160d
DTITLE=Donell Jones - k-Where I Wanna Be
DYEAR=1999
DGENRE=R&B
TTITLE0=U Know What's Up
TTITLE1=Shorty (Got Her Eyes On Me)
TTITLE2=Where I Wanna Be
TTITLE3=Have You Seen Her
TTITLE4=This Luv
TTITLE5=All Her Love
TTITLE6=It's Alright
TTITLE7=Think About It (Don't Call My Crib)
TTITLE8=He Won't Hurt You
TTITLE9=Pushin'
TTITLE10=I Wanna Luv You
TTITLE11=When I Was Down
TTITLE12=U Know What's Up (feat. Left-Eye)
EXTD=YEAR: 1999
EXTT0=
EXTT1=
EXTT2=
EXTT3=
EXTT4=
EXTT5=
EXTT6=
EXTT7=
EXTT8=
EXTT9=
EXTT10=
EXTT11=
EXTT12=
PLAYORDER=
